<svg width="31" height="30" viewBox="0 0 31 30" fill="none" xmlns="http://www.w3.org/2000/svg">
<path d="M15.5299 30C23.8141 30 30.5299 23.2842 30.5299 15C30.5299 6.71572 23.8141 0 15.5299 0C7.2456 0 0.529877 6.71572 0.529877 15C0.529877 17.3995 1.09331 19.6674 2.09507 21.6787C2.36129 22.2132 2.44989 22.8241 2.29556 23.4009L1.40214 26.7401C1.0143 28.1895 2.34039 29.5155 3.7899 29.1278L7.12896 28.2344C7.70577 28.08 8.31669 28.1686 8.85117 28.4347C10.8624 29.4366 13.1303 30 15.5299 30Z" fill="url(#paint0_linear_9_87)"/>
<defs>
<linearGradient id="paint0_linear_9_87" x1="15.5299" y1="0" x2="15.5299" y2="30" gradientUnits="userSpaceOnUse">
<stop stop-color="#854D9C"/>
<stop offset="1" stop-color="#CD4ED3"/>
</linearGradient>
</defs>
</svg>
