<svg xmlns="http://www.w3.org/2000/svg" viewBox="0 0 32 32" id="Link"><path d="M15 1c-2.203 0-4 1.797-4 4 0 .649.161 1.27.438 1.813l-6.344 5.406A2.937 2.937 0 0 0 4 12c-1.65 0-3 1.35-3 3s1.35 3 3 3c.322 0 .615-.062.906-.156l5.563 9.25c-.286.406-.469.875-.469 1.406 0 1.375 1.125 2.5 2.5 2.5a2.51 2.51 0 0 0 2.469-2.125L25 25.531c.417.311.943.469 1.5.469 1.375 0 2.5-1.125 2.5-2.5a2.44 2.44 0 0 0-.5-1.469l.969-12.406A3.024 3.024 0 0 0 31 7c0-1.65-1.35-3-3-3-.857 0-1.64.388-2.188.969l-7-1.032C18.334 2.264 16.823 1 15 1zm0 1c1.663 0 3 1.337 3 3s-1.337 3-3 3-3-1.337-3-3 1.337-3 3-3zm4 2.969 6.25.906C25.105 6.226 25 6.598 25 7c0 .897.403 1.7 1.031 2.25l-6.156 6.156A2.529 2.529 0 0 0 18.5 15c-.99 0-1.846.597-2.25 1.438l-9.313-.844A2.94 2.94 0 0 0 6 12.78l6.001-5.156A3.943 3.943 0 0 0 15 9c2.203 0 4-1.797 4-4v-.031zM28 5c1.11 0 2 .89 2 2a1.993 1.993 0 0 1-2 2c-1.11 0-2-.89-2-2 0-1.11.89-2 2-2zm-1.094 4.781C27.25 9.92 27.61 10 28 10c.14 0 .27-.012.406-.031l-.843 11.281A2.5 2.5 0 0 0 26.5 21c-.532 0-1.031.183-1.438.469l-4.437-2.688A2.49 2.49 0 0 0 21 17.5c0-.516-.167-.976-.438-1.375l6.344-6.344zM4 13c1.11 0 2 .89 2 2 0 1.11-.89 2-2 2-1.11 0-2-.89-2-2 0-1.11.89-2 2-2zm14.5 3c.834 0 1.5.666 1.5 1.5s-.666 1.5-1.5 1.5-1.5-.666-1.5-1.5.666-1.5 1.5-1.5zm-11.938.563 9.438.843c-.001.032 0 .062 0 .094 0 1.375 1.125 2.5 2.5 2.5a2.47 2.47 0 0 0 1.469-.469l4.437 2.657c-.246.387-.406.822-.406 1.312 0 .43.12.833.313 1.188l-9.438 3.125C14.571 26.773 13.633 26 12.5 26c-.466 0-.906.15-1.281.375l-5.375-9c.289-.225.527-.499.718-.813zM26.5 22c.834 0 1.5.666 1.5 1.5s-.666 1.5-1.5 1.5-1.5-.666-1.5-1.5.666-1.5 1.5-1.5zm-14 5c.834 0 1.5.666 1.5 1.5s-.666 1.5-1.5 1.5-1.5-.666-1.5-1.5.666-1.5 1.5-1.5z" color="#000" font-family="Sans" font-weight="400" overflow="visible" style="text-indent:0;text-align:start;line-height:normal;text-transform:none;block-progression:tb;marker:none;-inkscape-font-specification:Sans" fill="#000000" class="color000000 svgShape"></path></svg>