<svg xmlns="http://www.w3.org/2000/svg" viewBox="0 0 128 128" id="Profile"><circle cx="64" cy="109" r="2" fill="#000000" class="color000000 svgShape"></circle><circle cx="64" cy="93" r="2" fill="#000000" class="color000000 svgShape"></circle><path d="M64 0a64 64 0 1 0 64 64A64.072 64.072 0 0 0 64 0Zm0 115a6 6 0 1 1 6-6 6.007 6.007 0 0 1-6 6Zm0-16a6 6 0 1 1 6-6 6.007 6.007 0 0 1-6 6Zm34 2H86a2 2 0 0 1 0-4h12a2 2 0 0 1 0 4Zm2.777-30.4a51.85 51.85 0 0 0-10.436-7.748 32.959 32.959 0 0 1-52.655.034 49.78 49.78 0 0 0-24.582 32.878q-1.529-2.445-2.824-5.041a54.06 54.06 0 0 1 25.187-31.175 33 33 0 1 1 57.084-.033 55.784 55.784 0 0 1 10.996 8.199 53.07 53.07 0 0 1 14.183 22.99q-1.295 2.598-2.828 5.05A48.846 48.846 0 0 0 100.777 70.6Z" fill="#000000" class="color000000 svgShape"></path><path d="M64 14a29 29 0 1 0 29 29 29.033 29.033 0 0 0-29-29Zm0 54a25 25 0 1 1 25-25 25 25 0 0 1-25 25Z" fill="#000000" class="color000000 svgShape"></path></svg>